Stomp the Yard 2007 BRRip H264 AAC-Rx(Phoenix-RG).mp4
      Format : MPEG-4 / AVC
      File size : 1.86 GiB
      Duration : 1h 54mn
      Encoding : 2 Pass
      Format profile : High@L4.1
      Bit rate : 2 000 Kbps
      Width : 1 280 pixels
      Height : 536 pixels
      Display aspect ratio : 2.35
      Frame rate : 23.976 fps
      Resolution : 24 bits
      Colorimetry : 4:2:0
      Bits/(Pixel*Frame) : 0.122
      Stream size : 1.60 GiB (86%)
      
  Audio
      Format : AAC / LC
      Format/Info : Advanced Audio Codec
      Duration : 1h 54mn
      Bit rate : 322 Kbps
      Channel(s) : 6 channels
      Channel positions : Front: L C R, Rear: L R, LFE
      Sampling rate : 48.0 KHz
      Resolution : 16 bits
      Stream size : 263 MiB (14%)


SCREEN:
 
http://img507.imageshack.us/img507/7126/vlcsnap941685.jpg
 
http://img594.imageshack.us/img594/6235/vlcsnap99791.jpg
 
http://img339.imageshack.us/img339/7291/vlcsnap946199.jpg